<svg class="svg-icon" style="width: 1em; height: 1em;vertical-align: middle;fill: currentColor;overflow: hidden;" viewBox="0 0 1024 1024" version="1.1" xmlns="http://www.w3.org/2000/svg"><path d="M853.12 92.8l-37.76 24.96a27.84 27.84 0 0 1-32 0l-64-43.52a27.84 27.84 0 0 0-32 0l-64 43.52a27.84 27.84 0 0 1-32 0l-64-43.52a27.84 27.84 0 0 0-32 0l-64 43.52a27.84 27.84 0 0 1-32 0l-64-43.52a27.84 27.84 0 0 0-32 0l-64 43.52a27.84 27.84 0 0 1-32 0L170.88 92.8A27.84 27.84 0 0 0 128 115.84v792.32a27.84 27.84 0 0 0 42.88 23.04l37.76-24.96a27.84 27.84 0 0 1 32 0l64 43.52a27.84 27.84 0 0 0 32 0l64-43.52a27.84 27.84 0 0 1 32 0l64 43.52a27.84 27.84 0 0 0 32 0l64-43.52a27.84 27.84 0 0 1 32 0l64 43.52a27.84 27.84 0 0 0 32 0l64-43.52a27.84 27.84 0 0 1 32 0l37.76 24.96a27.84 27.84 0 0 0 41.6-23.04V115.84a27.84 27.84 0 0 0-42.88-23.04zM688 650.56c0 11.84-14.4 21.44-32 21.44h-288c-17.6 0-32-9.6-32-21.44v-21.44c0-11.84 14.4-21.44 32-21.44h288c17.6 0 32 9.6 32 21.44z m0-128c0 11.84-14.4 21.44-32 21.44h-288c-17.6 0-32-9.6-32-21.44v-21.44c0-11.84 14.4-21.44 32-21.44h288c17.6 0 32 9.6 32 21.44z m0-128c0 11.84-14.4 21.44-32 21.44h-288c-17.6 0-32-9.6-32-21.44v-21.44c0-11.84 14.4-21.44 32-21.44h288c17.6 0 32 9.6 32 21.44z" fill="#231F20" /></svg>