<svg width="600" height="600" viewBox="0 0 600 600" fill="none" xmlns="http://www.w3.org/2000/svg">
<path d="M234.62 108.403L298.628 54.7893L328.058 57.3596L325.483 86.7366L325.484 86.7376L354.913 89.3069L352.338 118.684L381.767 121.254L379.193 150.631L408.623 153.201L406.047 182.578L342.039 236.192L234.62 108.403Z" fill="#FF9900"/>
<path d="M234.62 108.403L298.628 54.7893L328.058 57.3596L325.483 86.7366L325.484 86.7376L354.913 89.3069L352.338 118.684L381.767 121.254L379.193 150.631L408.623 153.201L406.047 182.578L342.039 236.192L234.62 108.403Z" fill="black" fill-opacity="0.35"/>
<path d="M361.717 220.244L236.728 106.92L233.711 109.451L341.219 237.574L361.717 220.244Z" fill="black" fill-opacity="0.05"/>
<path d="M350.201 230.653L234.651 109.483L229.626 113.904L339.126 239.357L350.201 230.653Z" fill="black" fill-opacity="0.05"/>
<path d="M365.389 489.597L300.975 543.211L271.359 540.64L273.951 511.263L273.95 511.262L244.335 508.693L246.926 479.316L217.31 476.746L219.901 447.369L190.285 444.799L192.877 415.422L257.29 361.808L365.389 489.597Z" fill="#FF9900"/>
<path d="M365.389 489.597L300.975 543.211L271.359 540.64L273.951 511.263L273.95 511.262L244.335 508.693L246.926 479.316L217.31 476.746L219.901 447.369L190.285 444.799L192.877 415.422L257.29 361.808L365.389 489.597Z" fill="black" fill-opacity="0.35"/>
<path d="M344.516 507.192L254.618 364.423L257.634 361.892L365.142 490.015L344.516 507.192Z" fill="black" fill-opacity="0.05"/>
<path d="M354.928 498.818L255.663 363.982L260.89 359.801L365.423 489.422L354.928 498.818Z" fill="black" fill-opacity="0.05"/>
<path d="M187.279 278.635C151.779 236.328 157.297 173.252 199.604 137.752L235.107 107.961L412.721 319.633C448.221 361.941 442.703 425.016 400.396 460.516L364.893 490.307L187.279 278.635Z" fill="#FF9900"/>
</svg>
